<svg width="14" height="12" viewBox="0 0 14 12" fill="none" xmlns="http://www.w3.org/2000/svg">
<path d="M10.4727 0.75C9.24258 0.75 7.91786 1.00233 7.00317 1.69623C6.08848 1.00233 4.76376 0.75 3.53366 0.75C2.61897 0.75 1.64751 0.88878 0.833748 1.24835C0.37325 1.45652 0.0641479 1.9044 0.0641479 2.41536V9.53102C0.0641479 10.3511 0.833748 10.9567 1.62858 10.7548C2.24679 10.5971 2.90284 10.5277 3.53366 10.5277C4.51774 10.5277 5.5649 10.6917 6.4102 11.1081C6.78869 11.2973 7.21765 11.2973 7.58983 11.1081C8.43513 10.6854 9.48229 10.5277 10.4664 10.5277C11.0972 10.5277 11.7532 10.5971 12.3714 10.7548C13.1663 10.963 13.9359 10.3574 13.9359 9.53102V2.41536C13.9359 1.9044 13.6268 1.45652 13.1663 1.24835C12.3588 0.88878 11.3874 0.75 10.4727 0.75ZM12.6805 8.78034C12.6805 9.17776 12.3147 9.46793 11.9236 9.39854C11.4504 9.31023 10.9584 9.27238 10.4727 9.27238C9.40028 9.27238 7.85478 9.68241 7.00317 10.2186V2.95787C7.85478 2.42167 9.40028 2.01164 10.4727 2.01164C11.053 2.01164 11.6271 2.06841 12.1759 2.18827C12.4661 2.25135 12.6805 2.50999 12.6805 2.80647V8.78034Z" fill="#3548FE"/>
</svg>
