<svg width="22" height="18" viewBox="0 0 22 18" fill="none" xmlns="http://www.w3.org/2000/svg">
<path d="M16.505 0.67749C14.555 0.67749 12.455 1.07749 11.005 2.17749C9.55501 1.07749 7.455 0.67749 5.505 0.67749C4.05501 0.67749 2.515 0.89749 1.225 1.46749C0.495005 1.79749 0.00500488 2.50749 0.00500488 3.31749V14.5975C0.00500488 15.8975 1.225 16.8575 2.485 16.5375C3.465 16.2875 4.505 16.1775 5.505 16.1775C7.065 16.1775 8.72501 16.4375 10.065 17.0975C10.665 17.3975 11.345 17.3975 11.935 17.0975C13.275 16.4275 14.935 16.1775 16.495 16.1775C17.495 16.1775 18.535 16.2875 19.515 16.5375C20.775 16.8675 21.995 15.9075 21.995 14.5975V3.31749C21.995 2.50749 21.505 1.79749 20.775 1.46749C19.495 0.89749 17.955 0.67749 16.505 0.67749ZM20.005 13.4075C20.005 14.0375 19.425 14.4975 18.805 14.3875C18.055 14.2475 17.275 14.1875 16.505 14.1875C14.805 14.1875 12.355 14.8375 11.005 15.6875V4.17749C12.355 3.32749 14.805 2.67749 16.505 2.67749C17.425 2.67749 18.335 2.76749 19.205 2.95749C19.665 3.05749 20.005 3.46749 20.005 3.93749V13.4075Z" fill="black" fill-opacity="0.54"/>
</svg>
